<svg width="90" height="90" fill="none" xmlns="http://www.w3.org/2000/svg"><g clip-path="url(#a)"><path d="m84.15 63.33 4 1.74-3.69 2.35-.31-4.09zM83.88 49.31l4 1.74-3.69 2.34-.31-4.08zM84.28 35.15l4.01 1.74-3.69 2.34-.32-4.08z" fill="#B4875F"/><path d="m88.97 65.49-2.3.45c-.77-2.49-.91-5.06-.83-7.26.07-1.62.25-2.96.41-3.94l2.86-1.63c.95-.55.82-1.37-.27-1.78l-2.15.67c-1.07-2.03-1.09-5.15-.82-7.78.13-1.39.35-2.64.53-3.55l3-1.71c.41-.28.55-.55.55-.83.13-.27-.28-.69-.82-.96l-.82-.27-1.62.86c-.9-2.24-.93-5.09-.72-7.45.09-1.06.23-1.97.36-2.73l2.93-1.67c.95-.55.81-1.38-.27-1.79L39.79 4.05c-1.09-.41-2.85-.41-3.67.14L2.02 23.56C.93 25.35.25 27.42.25 29.75c0 1.92.41 4.12 1.63 6.32-2.04 3.43-2.72 9.35-.27 14.17-2.17 3.3-2.18 9.35.14 14.16l53.8 21.86 33.83-18.97c.95-.55.81-1.37-.41-1.79v-.01z" fill="#C59A76"/><path d="M86.67 65.94 53.89 84.71l-1.87-40.85 34.64-18.07s-1.87 7.31 0 11.97c.12.31.04 1.45.04 1.45s-2.24 8.59-.04 12.76c.34.64-.12 1.24-.12 1.24s-1.74 6.7.12 12.73h.01z" fill="#E8E6E1"/><path d="m56.27 47.28 29.68-16.97c.22-2.54.72-4.52.72-4.52L52.03 43.86l.49 10.87 1.95 1.01c.02-4.45 1.81-8.46 1.81-8.46h-.01zM56 61.3l29.84-17.01c.14-1.42.36-2.7.54-3.62v-.8L52.65 57.4l.54 11.83 1 .52c.02-4.45 1.81-8.46 1.81-8.46v.01zM56.27 75.59l29.56-16.91c.07-1.85.3-3.42.48-4.39L53.29 71.51l.56 12.22.62.32c.02-4.45 1.81-8.46 1.81-8.46h-.01z" fill="#D1CCC5"/><path d="m55.28 72.09 33.83-18.98c.95-.55.82-1.37-.27-1.78l-.94-.28-33.69 18.7c-.68-3.57-.13-8.25 1.36-11.69L1.89 36.07c-2.04 3.43-2.72 9.35-.27 14.17L55.28 72.1v-.01zm33.69-6.6-.81-.41-33.69 18.97c-.68-3.57-.68-8.52.81-11.95L1.62 50.24c-2.17 3.3-2.18 9.35.14 14.16l53.8 21.86 33.83-18.97c.95-.55.81-1.37-.41-1.79l-.01-.01zm-33.42-7.42 33.83-19.1c.41-.28.55-.55.55-.83.13-.27-.28-.69-.82-.96l-.82-.27h-.13L54.47 55.74c-.27-1.51-.54-3.02-.54-4.68 0-1.93.41-3.98 1.22-5.91L2.02 23.56C.93 25.35.25 27.42.25 29.75c0 1.92.41 4.12 1.63 6.32l53.66 22h.01z" fill="#9D6C3E"/><path d="M88.97 24.11 39.79 4.05c-1.09-.41-2.85-.41-3.67.14L2.02 23.56l53.12 21.59 34.1-19.25c.95-.55.81-1.38-.27-1.79z" fill="#CA9350"/><path d="M1.62 50.24c-.15.23-.27.51-.4.77L55.28 72.1 1.1 49.01c.16.41.31.83.52 1.23zM1.51 36.83l53.7 21.1.34.14L1.32 34.86c.17.4.34.81.57 1.21-.14.23-.25.51-.38.76z" fill="#6A4632"/><path d="M25.82 23.04c.45.65 1.2 1.21 2.25 1.67.92.4 1.99.69 3.23.86 1.22.17 2.51.23 3.86.18 1.36-.05 2.72-.21 4.1-.47 1.38-.27 2.71-.63 3.96-1.1l7.68 3.31-2.5 1.27-1.92-.84a1.49 1.49 0 0 0-.63-.1c-.25 0-.47.05-.64.14l-1.23.64c-.17.08-.26.18-.27.29 0 .11.08.21.27.29l6.39 2.74c.18.09.39.13.64.12.25 0 .46-.06.64-.14l1.25-.62c.17-.08.25-.19.26-.3 0-.12-.09-.22-.26-.3l-1.96-.81 2.5-1.27 4.61 1.98c.53.23 1.17.34 1.91.32.74-.02 1.37-.15 1.88-.42.51-.27.76-.57.75-.91 0-.34-.28-.62-.81-.85l-14.84-6.41c.91-.61 1.59-1.25 2.05-1.91.46-.66.7-1.3.72-1.93.01-.63-.2-1.22-.65-1.78-.45-.55-1.16-1.04-2.1-1.44-1.06-.46-2.31-.77-3.75-.93-1.45-.16-2.95-.17-4.49-.05-1.56.12-3.11.39-4.65.79-1.55.4-2.98.93-4.29 1.58s-2.32 1.36-3.05 2.1c-.73.75-1.17 1.49-1.34 2.22-.16.73-.01 1.42.44 2.07l-.01.01zm4.3-1.53c0-.28.1-.55.32-.82.21-.27.55-.51.99-.73.63-.31 1.38-.52 2.22-.62.84-.1 1.66-.11 2.47 0-.29-.36-.34-.74-.18-1.14.16-.4.57-.76 1.2-1.09.44-.23.94-.4 1.5-.52a9.74 9.74 0 0 1 1.71-.2c.58 0 1.15.03 1.73.12.56.09 1.07.23 1.52.42.46.2.81.42 1.04.67.22.25.34.52.34.79.02.27-.09.54-.31.81s-.54.52-.99.74c-.63.33-1.37.54-2.21.64-.84.1-1.67.1-2.47 0 .28.36.35.74.19 1.14-.15.4-.54.76-1.18 1.09-.44.23-.94.4-1.49.52-.56.12-1.14.19-1.73.2-.6.01-1.18-.02-1.74-.11-.57-.09-1.07-.23-1.52-.43-.46-.2-.81-.42-1.04-.68-.23-.25-.34-.52-.35-.8h-.02z" fill="#9D6C3E"/><path d="M25.82 22.27c.45.65 1.2 1.21 2.25 1.67.92.4 1.99.69 3.23.86 1.22.17 2.51.23 3.86.18 1.36-.05 2.72-.21 4.1-.47 1.38-.27 2.71-.63 3.96-1.1l7.68 3.31-2.5 1.27-1.92-.84a1.49 1.49 0 0 0-.63-.1c-.25 0-.47.05-.64.14l-1.23.64c-.17.08-.26.18-.27.29 0 .11.08.21.27.29l6.39 2.74c.18.09.39.13.64.12.25 0 .46-.06.64-.14l1.25-.62c.17-.08.25-.19.26-.3 0-.12-.09-.22-.26-.3l-1.96-.81 2.5-1.27 4.61 1.98c.53.23 1.17.34 1.91.32.74-.02 1.37-.15 1.88-.42.51-.27.76-.57.75-.91 0-.34-.28-.62-.81-.85l-14.84-6.41c.91-.61 1.59-1.25 2.05-1.91.46-.66.7-1.3.72-1.93.01-.63-.2-1.22-.65-1.78-.45-.55-1.16-1.04-2.1-1.44-1.06-.46-2.31-.77-3.75-.93-1.45-.16-2.95-.17-4.49-.05-1.56.12-3.11.39-4.65.79-1.55.4-2.98.93-4.29 1.58s-2.32 1.36-3.05 2.1c-.73.75-1.17 1.49-1.34 2.22-.16.73-.01 1.42.44 2.07l-.01.01zm4.3-1.53c0-.28.1-.55.32-.82.21-.27.55-.51.99-.73.63-.31 1.38-.52 2.22-.62.84-.1 1.66-.11 2.47 0-.29-.36-.34-.74-.18-1.14.16-.4.57-.76 1.2-1.09.44-.23.94-.4 1.5-.52a9.74 9.74 0 0 1 1.71-.2c.58 0 1.15.03 1.73.12.56.09 1.07.23 1.52.42.46.2.81.42 1.04.67.22.25.34.52.34.79.02.27-.09.54-.31.81s-.54.52-.99.74c-.63.33-1.37.54-2.21.64-.84.1-1.67.1-2.47 0 .28.36.35.74.19 1.14-.15.4-.54.76-1.18 1.09-.44.23-.94.4-1.49.52-.56.12-1.14.19-1.73.2-.6.01-1.18-.02-1.74-.11-.57-.09-1.07-.23-1.52-.43-.46-.2-.81-.42-1.04-.68-.23-.25-.34-.52-.35-.8h-.02z" fill="#F7C631"/></g><defs><clipPath id="a"><path fill="#fff" d="M0 0h90v90H0z"/></clipPath></defs></svg>